<svg width="96" height="96" viewBox="0 0 96 96" fill="none" xmlns="http://www.w3.org/2000/svg">
  <g clip-path="url(#clip0_22_101)">
    <g clip-path="url(#clip1_22_101)">
      <circle cx="48" cy="48" r="48" fill="#009596" />
    </g>
    <path
      d="M64.5502 36.2179C64.5502 39.2416 62.099 41.6928 59.0753 41.6928C56.0516 41.6928 53.6005 39.2416 53.6005 36.2179C53.6005 33.1942 56.0516 30.743 59.0753 30.743C62.099 30.743 64.5502 33.1942 64.5502 36.2179Z"
      stroke="white" stroke-width="3" />
    <path
      d="M78.5 50.1676C78.5 53.1913 76.0488 55.6425 73.0251 55.6425C70.0014 55.6425 67.5502 53.1913 67.5502 50.1676C67.5502 47.1439 70.0014 44.6927 73.0251 44.6927C76.0488 44.6927 78.5 47.1439 78.5 50.1676Z"
      stroke="white" stroke-width="3" />
    <path
      d="M64.5502 64.1174C64.5502 67.1411 62.099 69.5923 59.0753 69.5923C56.0516 69.5923 53.6005 67.1411 53.6005 64.1174C53.6005 61.0937 56.0516 58.6425 59.0753 58.6425C62.099 58.6425 64.5502 61.0937 64.5502 64.1174Z"
      stroke="white" stroke-width="3" />
    <path d="M58.5388 43.1927V58.2156" stroke="white" stroke-width="3" stroke-linecap="round" />
    <path d="M62.831 40.5101L68.1963 46.4119" stroke="white" stroke-width="3" stroke-linecap="round" />
    <path d="M49.9543 47.485L51.5639 48.7113L53.1735 49.6311" stroke="white" stroke-width="3" stroke-linecap="round" />
    <path
      d="M38.1507 65.727C38.1507 65.727 40.7666 64.0675 41.9064 62.5078C42.7357 61.373 43.0201 60.6038 43.516 59.2886C44.1975 57.4811 44.2523 56.362 44.589 54.4599C45.9405 46.826 42.8389 42.1607 44.589 34.6083C45.0829 32.4772 45.096 31.1323 46.1986 29.243C47.3935 27.1956 48.5505 26.3126 50.4909 24.9507C52.5631 23.4963 53.9026 22.7254 56.3927 22.2681C58.2474 21.9274 59.3731 21.8943 61.2215 22.2681C63.2441 22.6772 64.3109 23.3036 66.0502 24.4142C67.6784 25.4538 68.5494 26.1662 69.8059 27.6334C70.7888 28.7809 71.9521 30.8526 71.9521 30.8526C71.9521 30.8526 72.7132 32.1151 73.0251 32.9987C73.8619 35.3697 73.0251 39.437 73.0251 39.437"
      stroke="white" stroke-width="3" stroke-linecap="round" />
    <path
      d="M39.2238 42.6562C39.2238 42.6562 36.1338 40.5308 33.8585 39.9736C31.4163 39.3755 27.4201 39.9736 27.4201 39.9736C27.4201 39.9736 25.0478 40.404 23.6644 41.0466C22.0297 41.806 21.1832 42.4548 19.9087 43.7293C18.6342 45.0038 17.9751 45.8456 17.226 47.485C16.508 49.0565 16.3459 50.0602 16.153 51.7772C15.8713 54.2845 15.9395 55.8066 16.6895 58.2156C17.2466 60.005 17.7333 60.9922 18.8356 62.5078C19.8813 63.9457 20.5723 64.7456 22.0548 65.727C23.3854 66.6078 24.2772 66.8948 25.8105 67.3366C26.8371 67.6324 28.4932 67.8731 28.4932 67.8731H30.6393"
      stroke="white" stroke-width="3" stroke-linecap="round" />
    <path d="M27.4201 62.5078L32.7854 67.8731" stroke="white" stroke-width="3" stroke-linecap="round" />
    <path d="M27.4201 73.7749L32.7854 67.8731" stroke="white" stroke-width="3" stroke-linecap="round" />
  </g>
  <defs>
    <clipPath id="clip0_22_101">
      <rect width="96" height="96" fill="white" />
    </clipPath>
    <clipPath id="clip1_22_101">
      <rect width="96" height="96" fill="white" />
    </clipPath>
  </defs>
</svg>